<?xml version="1.0" encoding="UTF-8"?>
<svg
 width="700"
  height="700"
   version="1.1"
    viewBox="100 20 500 500" xmlns="http://www.w3.org/2000/svg" xmlns:xlink="http://www.w3.org/1999/xlink">
 <g>
  <path d="m599.96 275.74c-20.883-53.434-57.051-97.066-102.43-126.82l70.699-70.699-16.449-16.449-74.898 74.898c-38.035-20.418-81.434-31.617-126.93-31.617-111.3 0-209.42 66.965-249.9 170.68l-1.6328 4.3164 1.6328 4.1992c20.883 53.434 56.934 97.066 102.32 126.93l-70.582 70.582 16.449 16.449 74.785-74.785c38.035 20.418 81.434 31.617 126.93 31.617 111.3 0 209.42-67.082 250.02-170.8l1.6328-4.1992zm-476.46 4.3164c37.918-92.285 126.35-151.67 226.45-151.67 39.082 0 76.301 8.9844 109.55 25.668l-60.668 60.668c-13.648-10.266-30.566-16.332-48.883-16.332-45.035 0-81.668 36.633-81.668 81.668 0 18.316 6.0664 35.234 16.332 48.883l-65.332 65.332c-42.113-26.484-75.949-65.801-95.781-114.22zm284.78 0c0 32.082-26.133 58.332-58.332 58.332-11.785 0-22.867-3.5-32.082-9.8008l80.617-80.617c6.2969 9.1016 9.7969 20.188 9.7969 32.086zm-116.66 0c0-32.199 26.25-58.332 58.332-58.332 11.898 0 22.984 3.5 32.082 9.8008l-80.617 80.617c-6.2969-9.2188-9.7969-20.305-9.7969-32.086zm58.332 151.67c-39.082 0-76.418-8.9844-109.55-25.668l60.668-60.668c13.648 10.266 30.566 16.332 48.883 16.332 45.035 0 81.668-36.633 81.668-81.668 0-18.316-6.0664-35.234-16.332-48.883l65.332-65.332c42.117 26.367 75.949 65.801 95.898 114.21-38.031 92.285-126.46 151.67-226.57 151.67z"/>
  <use x="70" y="735" xlink:href="#g"/>
  <use x="220.503906" y="735" xlink:href="#f"/>
  <use x="287.953125" y="735" xlink:href="#e"/>
  <use x="350.015625" y="735" xlink:href="#d"/>
  <use x="450.105469" y="735" xlink:href="#c"/>
  <use x="598.105469" y="735" xlink:href="#b"/>
  <use x="659.941406" y="735" xlink:href="#a"/>
 </g>
</svg>
