<?xml version="1.0" encoding="UTF-8"?>
<svg 
width="700"
 height="700"
  version="1.1"
   viewBox="100 20 500 500" xmlns="http://www.w3.org/2000/svg" xmlns:xlink="http://www.w3.org/1999/xlink">
 <g>
  <path d="m350 455c-111.31 0-209.43-67.023-249.96-170.75l-1.6562-4.2461 1.6562-4.2461c40.527-103.73 138.64-170.75 249.96-170.75s209.43 67.023 249.96 170.75l1.6445 4.2461-1.6562 4.2461c-40.516 103.73-138.63 170.75-249.95 170.75zm-226.52-175c37.996 92.297 126.41 151.67 226.52 151.67s188.52-59.371 226.52-151.67c-37.996-92.297-126.41-151.67-226.52-151.67s-188.52 59.371-226.52 151.67zm226.52 81.668c-45.035 0-81.668-36.645-81.668-81.668 0-45.035 36.633-81.668 81.668-81.668 45.023 0 81.668 36.633 81.668 81.668 0 45.023-36.645 81.668-81.668 81.668zm0-140c-32.164 0-58.332 26.168-58.332 58.332s26.168 58.332 58.332 58.332 58.332-26.168 58.332-58.332-26.168-58.332-58.332-58.332z"/>
  <use x="70" y="735" xlink:href="#g"/>
  <use x="220.503906" y="735" xlink:href="#f"/>
  <use x="287.953125" y="735" xlink:href="#e"/>
  <use x="350.015625" y="735" xlink:href="#d"/>
  <use x="450.105469" y="735" xlink:href="#c"/>
  <use x="598.105469" y="735" xlink:href="#b"/>
  <use x="659.941406" y="735" xlink:href="#a"/>
 </g>
</svg>
